<svg xmlns="http://www.w3.org/2000/svg" viewBox="0 0 649 275" width="649" height="275">
  <rect width="649" height="275" fill="white"/>
  <g fill="#000000" stroke="#000000" stroke-width="7" stroke-linejoin="round">
    <path d="M33 166V534Q33 619 75.0 664.5Q117 710 197 710Q277 710 319.0 664.5Q361 619 361 534V474H257V541Q257 610 200 610Q143 610 143 541V158Q143 90 200 90Q257 90 257 158V295H202V395H361V166Q361 81 319.0 35.5Q277 -10 197 -10Q117 -10 75.0 35.5Q33 81 33 166Z" transform="translate(168.3,125.0) scale(0.120000,-0.120000)"/>
    <path d="M41 700H332V600H151V405H293V305H151V0H41Z" transform="translate(215.7,125.0) scale(0.120000,-0.120000)"/>
    <path d="M127 600H12V700H352V600H237V0H127Z" transform="translate(257.5,125.0) scale(0.120000,-0.120000)"/>
    <path d="M37 166V700H147V158Q147 122 161.5 106.0Q176 90 203 90Q230 90 244.5 106.0Q259 122 259 158V700H365V166Q365 81 323.0 35.5Q281 -10 201 -10Q121 -10 79.0 35.5Q37 81 37 166Z" transform="translate(38.0,250.0) scale(0.120000,-0.120000)"/>
    <path d="M22 166V206H126V158Q126 90 183 90Q211 90 225.5 106.5Q240 123 240 160Q240 204 220.0 237.5Q200 271 146 318Q78 378 51.0 426.5Q24 475 24 536Q24 619 66.0 664.5Q108 710 188 710Q267 710 307.5 664.5Q348 619 348 534V505H244V541Q244 577 230.0 593.5Q216 610 189 610Q134 610 134 543Q134 505 154.5 472.0Q175 439 229 392Q298 332 324.0 283.0Q350 234 350 168Q350 82 307.5 36.0Q265 -10 184 -10Q104 -10 63.0 35.5Q22 81 22 166Z" transform="translate(86.7,250.0) scale(0.120000,-0.120000)"/>
    <path d="M41 700H151V415H269V700H379V0H269V315H151V0H41Z" transform="translate(131.9,250.0) scale(0.120000,-0.120000)"/>
    <path d="M41 700H341V600H151V415H302V315H151V100H341V0H41Z" transform="translate(182.8,250.0) scale(0.120000,-0.120000)"/>
    <path d="M41 700H204Q289 700 328.0 660.5Q367 621 367 539V496Q367 387 295 358V356Q335 344 351.5 307.0Q368 270 368 208V0H258V214Q258 262 242.5 281.0Q227 300 189 300H151V0H41ZM191 400Q224 400 240.5 417.0Q257 434 257 474V528Q257 566 243.5 583.0Q230 600 201 600H151V400Z" transform="translate(226.8,250.0) scale(0.120000,-0.120000)"/>
    <path d="M22 166V206H126V158Q126 90 183 90Q211 90 225.5 106.5Q240 123 240 160Q240 204 220.0 237.5Q200 271 146 318Q78 378 51.0 426.5Q24 475 24 536Q24 619 66.0 664.5Q108 710 188 710Q267 710 307.5 664.5Q348 619 348 534V505H244V541Q244 577 230.0 593.5Q216 610 189 610Q134 610 134 543Q134 505 154.5 472.0Q175 439 229 392Q298 332 324.0 283.0Q350 234 350 168Q350 82 307.5 36.0Q265 -10 184 -10Q104 -10 63.0 35.5Q22 81 22 166Z" transform="translate(349.2,250.0) scale(0.120000,-0.120000)"/>
    <path d="M41 700H151V415H269V700H379V0H269V315H151V0H41Z" transform="translate(394.3,250.0) scale(0.120000,-0.120000)"/>
    <path d="M41 700H151V0H41Z" transform="translate(445.2,250.0) scale(0.120000,-0.120000)"/>
    <path d="M41 700H332V600H151V405H293V305H151V0H41Z" transform="translate(468.8,250.0) scale(0.120000,-0.120000)"/>
    <path d="M127 600H12V700H352V600H237V0H127Z" transform="translate(510.6,250.0) scale(0.120000,-0.120000)"/>
    <path d="M22 166V206H126V158Q126 90 183 90Q211 90 225.5 106.5Q240 123 240 160Q240 204 220.0 237.5Q200 271 146 318Q78 378 51.0 426.5Q24 475 24 536Q24 619 66.0 664.5Q108 710 188 710Q267 710 307.5 664.5Q348 619 348 534V505H244V541Q244 577 230.0 593.5Q216 610 189 610Q134 610 134 543Q134 505 154.5 472.0Q175 439 229 392Q298 332 324.0 283.0Q350 234 350 168Q350 82 307.5 36.0Q265 -10 184 -10Q104 -10 63.0 35.5Q22 81 22 166Z" transform="translate(554.7,250.0) scale(0.120000,-0.120000)"/>
  </g>
  <g fill="#000000">
    <polygon points="335.2,6 367.2,6 317.2,269 285.2,269"/>
  </g>
</svg>